# xmcd
#
# Track frame offsets:
#	150
#	20742
#	36863
#	60834
#	81318
#	97932
#	123737
#	140156
#	161190
#	188748
#
# Disc length: 2859 seconds
#
# Revision: 1
# Processed by: cddbd v1.5.2PL0 Copyright (c) Steve Scherf et al.
# Submitted via: audiograbber 1.83.01
#
DISCID=880b290a
DTITLE=Alabama and Friends - At The Ryman (Live) CD2
DYEAR=2014
DGENRE=Country
TTITLE0=Born Country
TTITLE1=All American
TTITLE2=Love In The First Degree (& Luke Bryan)
TTITLE3=The Closer You Get (& Ely Young Band)
TTITLE4=High Cotton
TTITLE5=Take Me Down
TTITLE6=I'm In A Hurry (And Don't Know Why) (& Florida Georgia Line)
TTITLE7=That's How I Was Raised
TTITLE8=My Home's In Alabama (& Jamey Jonhson)
TTITLE9=Mountain Music
EXTD=
EXTT0=
EXTT1=
EXTT2=
EXTT3=
EXTT4=
EXTT5=
EXTT6=
EXTT7=
EXTT8=
EXTT9=
PLAYORDER=
